<?xml version="1.0" encoding="UTF-8"?>
<svg id="Capa_1" data-name="Capa 1" xmlns="http://www.w3.org/2000/svg" viewBox="0 0 160 160">
  <defs>
    <style>
      .cls-1 {
        fill: #ccc2b8;
      }

      .cls-2 {
        fill: #2a363b;
      }

      .cls-3 {
        fill: #698392;
      }
    </style>
  </defs>
  <g id="Je79S9.tif">
    <g>
      <path class="cls-2" d="M115.29,114.97l-.14-47.2-26.88,28.69c4.1,3.85,6.71,7.62,6.75,13.3.03,3.31-.93,6.23-3,8.88-5.97,7.66-17.3,7.72-23.19,1.03-2.62-2.98-4.01-6.72-3.81-10.57.31-5.89,3.22-8.78,6.86-12.89-.16-.19-26.84-28.7-26.84-28.7l-.24,47.58c0,2.38-1.83,3.85-3.94,4.63-2.72,1-7.59-.98-7.6-4.54l-.14-62.1c0-1.65,1.03-3.34,2.11-4.19,3.31-2.62,7.32-1.51,9.98,1.42l35.03,38.17,34.16-37.66c2.71-3.14,6.75-4.63,10.24-1.98,1.78,1.35,2.18,3.72,2.18,5.93l-.13,60.24c0,3.23-3.89,5.27-6.62,4.89-2.46-.35-4.8-2.11-4.81-4.92ZM80.09,102.94c-.41.02-4.93,3.38-4.76,7.07.1,2.28,1.64,3.77,3.35,4.34,1.96.65,4.01-.13,5.1-1.48,3.84-4.73-3.37-9.95-3.69-9.93Z"/>
      <circle class="cls-1" cx="80.2" cy="46.68" r="11.23"/>
    </g>
  </g>
  <path class="cls-3" d="M115.29,115.01l-.14-47.2-26.88,28.69c-2.83-2.93-8-7.99-8-7.99l34.16-37.66c2.71-3.14,6.75-4.63,10.24-1.98,1.78,1.35,2.18,3.72,2.18,5.93l-.13,60.24c0,3.23-3.89,5.27-6.62,4.89-2.46-.35-4.8-2.11-4.81-4.92Z"/>
</svg>