<?xml version="1.0" encoding="UTF-8"?>
<svg id="Capa_1" data-name="Capa 1" xmlns="http://www.w3.org/2000/svg" viewBox="0 0 158.54 159.3">
  <defs>
    <style>
      .cls-1 {
        fill: #ccc2b8;
      }

      .cls-2 {
        font-family: HelveticaNeue-Thin, 'Helvetica Neue';
        font-size: 12.87px;
        font-weight: 200;
        letter-spacing: .1em;
      }

      .cls-2, .cls-3 {
        fill: #698392;
      }

      .cls-4 {
        fill: #2a363b;
      }
    </style>
  </defs>
  <g>
    <path class="cls-4" d="M28.58,99.14c-.12.69-.43,6.48.4,7.26-1.11.19-2.09.15-3.18.06-.26-.23.13-.72.15-1.01.13-2.16.17-4.27-.03-6.43-.06-.62-.4-1.14-.76-1.43-.49-.4-1.16-.49-1.8-.28-1.05.36-1.68,1.36-1.67,2.46l.03,5.37c0,.46.39.81.33,1.28-1.04.16-2.12.12-3.24.06-.11-.49.43-.73.43-1.16v-7.26c.01-.62-.4-1.13-.78-1.67l3.11-.71c.19.41.03.8.35,1.22,1.06-.9,2.09-1.43,3.39-1.29,1.07.11,2.12.67,2.82,1.89,1.03-.99,1.98-1.76,3.29-1.89,2.14-.21,3.69,1.29,3.75,3.35l.18,6.47c.05.32.49.51.5.98-1.04.17-2.14.12-3.25.05-.31-.21.13-.74.14-1.02.11-2.04.21-4.02-.03-6.06-.1-.82-.38-1.74-1.19-2.05-1.28-.49-2.7.46-2.94,1.8Z"/>
    <path class="cls-4" d="M89.88,97.27c-3.77-.46-2.81,7.07-2.33,9.19-1.07.12-1.98.05-2.97.05.29-2.54.36-5,.12-7.52-.06-.7-.54-1.3-1.01-1.55-.69-.37-1.44-.25-2.08.16-.77.49-1.22,1.25-1.21,2.19l.04,5.38.47,1.24c-1.06.19-2.08.11-3.14.09-.27-.42.23-.76.22-1.18l-.04-7.74c0-.31-.77-.81-.41-1.1.82-.39,1.82-.49,2.69-.76.24.42.15.78.45,1.2.86-.62,1.57-1.15,2.54-1.28,1.52-.21,2.85.42,3.64,1.85,1.74-1.69,3.24-2.5,5.29-1.47.75.38,1.64,1.27,1.68,2.42l.24,6.7c.02.44.46.71.53,1.24-1.13.17-2.23.21-3.48.19.29-.93.53-1.67.48-2.56-.1-2.31.51-6.49-1.72-6.76Z"/>
    <path class="cls-4" d="M54.08,98.45c-1.37.54-1.51-1.72-2.83-.78-1.58,1.12-1.05,4.06-1.11,6.15-.03.98.11,1.75.59,2.69-1.28-.02-2.36.08-3.47-.06-.07-.42.32-.7.33-1.1l.04-7.11c0-.63-.48-1.11-.59-1.77.93-.32,1.92-.56,2.92-.69l.38,1.16c.59-.44,1.07-.96,1.79-1.2,1.05-.35,2-.06,2.73.82.13-.69.7-.68,1.04-.98.91-.8,1.47-1.94,2.53-2.72.48.88.05,1.8.32,2.77,1.24.49,3.05-.35,2.84.94-.12.76-1.95.04-2.85.52v6.73c-.02.68.43,1.21.98,1.35,1.41.36,1.69-1.63,2.46-1.22.19,1.38-1,2.43-2.36,2.74-1.63.36-3.4-.54-3.44-2.29l-.16-7.06c0-.38-.79-.67-1.09-.59-.48.12-.02,1.31-1.03,1.7Z"/>
    <path class="cls-4" d="M126.05,99.64c-.02-.77-.21-1.53-.74-1.98-.68-.58-1.59-.55-2.37-.2-.65.29-1.28.95-1.29,1.84l-.08,4.54c-.02.9.17,1.67.59,2.49-1.29.3-2.43.07-3.72.12.46-.64.69-1.01.69-1.66-.01-2.49.17-4.92-.1-7.38-.03-.24-.77-.67-.35-.94.8-.53,1.87-.58,2.8-.78l.39,1.07c1.68-.84,2.69-1.7,4.56-.85.72.32,1.85,1.04,1.9,2.19l.31,7.26.52,1.02c-1.11.24-2.24.16-3.35.1-.17-.52.25-.89.27-1.37.06-1.81.05-3.57,0-5.48Z"/>
    <path class="cls-4" d="M42.79,105.54c-1.43,1.33-3.53,1.67-5.22.63-.85-.52-1.16-1.47-1.1-2.42.06-.82.62-1.59,1.47-2.08,1.98-1.16,3.88-.88,4.54-2.03.54-.94-.18-2.6-.98-2.9-.64-.24-1.59-.35-1.82.26l-.8,2.16c-.22.6-1.48.51-1.81-.1-.54-.99-.02-2.19.92-2.73,1.64-.94,3.59-.98,5.3-.18,1.01.47,1.7,1.44,1.73,2.56l.15,5.88c.04,1.64,1.13-1.01,1.56-.36s-.21,1.57-.65,1.94c-.73.62-1.63.72-2.44.3-.34-.18-.43-.47-.86-.93ZM42.51,101.27c-1.2.14-2.4.49-3.17,1.37-.54.62-.57,1.54-.1,2.14.42.53,1.14.73,1.88.49,1.73-.56,1.78-2.36,1.38-3.99Z"/>
    <path class="cls-4" d="M130.16,105.48c-1.1-1.32-.31-3.1,1-3.88,1.58-.95,3.89-.83,4.49-1.9.56-1-.05-2.76-1.17-3.03-.73-.18-1.64-.08-1.85.62l-.54,1.81c-.21.71-1.63.54-1.95-.18s0-1.66.62-2.16c1.68-1.36,4.02-1.51,5.9-.5.88.47,1.46,1.24,1.49,2.25l.16,6.04c0,.19.24.35.32.41.48.33.69-1.02,1.33-.96.4,1-.3,2.13-1.04,2.5-1.19.59-2.15.1-2.94-.93-1.68,1.58-4.32,1.73-5.82-.07ZM135.87,103.4c.05-.83.02-1.38-.12-2.15-1.11.09-2.21.47-3.06,1.26-.77.72-.77,2.15.24,2.65,1.26.62,2.85-.33,2.94-1.76Z"/>
    <path class="cls-4" d="M101.64,105.69c-1.7,1.13-3.92,1.63-5.56.16-.69-.62-.95-1.48-.75-2.45.59-2.95,5.31-2.39,5.97-3.73.24-.48.18-1.05.05-1.6-.22-.93-.9-1.51-1.74-1.51-2.21,0-1.02,2.68-2.39,2.9-.48.08-1.22.04-1.41-.55-.3-.94.24-1.95,1.07-2.5,1.36-.89,3.13-1.05,4.66-.52,1.25.43,2.23,1.46,2.26,2.77l.16,5.89c0,.21.22.37.33.43.47.27.86-1.37,1.18-.83.54.92-.25,1.89-.89,2.28-1.09.67-2.11.16-2.94-.74ZM101.4,101.11c-1.44.27-3.73,1.12-3.72,2.63,0,.52.23,1.08.77,1.37.64.34,1.39.25,2.04-.14,1.14-.7,1.17-2.53.91-3.87Z"/>
    <path class="cls-4" d="M68.75,105.54c-1.67,1.6-4.33,1.73-5.77-.05-1.06-1.31-.33-3.14,1.01-3.96,1.58-.98,3.74-.79,4.36-1.82.35-.58.18-1.22,0-1.82-.25-.86-.93-1.31-1.72-1.3-1.91.01-.96,2.55-2.25,2.85-.42.1-1.09.11-1.32-.38-.45-.98.02-2.15.95-2.7,1.52-.89,3.38-1,4.98-.33,1.14.48,1.84,1.4,1.87,2.63l.15,5.88c0,.28.3.52.47.55.67.13.61-1.39,1.29-1.2.61.95-.19,2.23-.96,2.58-1.22.56-2.31.22-3.07-.92ZM66.02,105.27c1.36.44,2.56-.64,2.63-1.93.04-.77,0-1.42-.16-2.23-1.65.43-3.67.89-3.55,2.81.03.5.38,1.13,1.08,1.35Z"/>
    <path class="cls-4" d="M108.87,100.06l-.02,4.15c0,.8.16,1.41.68,2.11-1.31.3-2.44.24-3.62.08.04-.53.47-.79.46-1.22l-.03-7.33-.61-1.35c.93-.35,1.89-.55,2.81-.78.29.38.29.75.53,1.23.75-.6,1.42-1.29,2.44-1.32.78-.02,1.55.28,1.78.91.25.69.07,1.64-.68,1.97-.97.43-1.62-1.45-2.59-.84-.78.49-1.16,1.39-1.16,2.39Z"/>
    <path class="cls-4" d="M114.07,106.51c-.2-.56.42-.81.42-1.33l-.05-7.48-.6-1.25c.96-.43,2.01-.67,3.08-.82l.15,9.51c.11.43.6.71.61,1.21-1.14.2-2.24.09-3.61.16Z"/>
    <ellipse class="cls-4" cx="115.74" cy="93.1" rx="1.54" ry="1.53"/>
  </g>
  <g>
    <g id="Je79S9.tif">
      <g>
        <path class="cls-4" d="M100.53,78.5l-.08-28.44-16.19,17.29c2.47,2.32,4.04,4.59,4.07,8.02.02,1.99-.56,3.76-1.81,5.35-3.6,4.61-10.43,4.65-13.97.62-1.58-1.8-2.42-4.05-2.29-6.37.19-3.55,1.94-5.29,4.13-7.76-.1-.12-16.17-17.3-16.17-17.3l-.14,28.67c0,1.43-1.1,2.32-2.37,2.79-1.64.6-4.57-.59-4.58-2.74l-.08-37.42c0-1,.62-2.01,1.27-2.53,1.99-1.58,4.41-.91,6.02.86l21.11,23,20.58-22.69c1.63-1.89,4.07-2.79,6.17-1.19,1.07.81,1.31,2.24,1.31,3.57l-.08,36.3c0,1.95-2.34,3.18-3.99,2.94-1.48-.21-2.89-1.27-2.9-2.96ZM79.32,71.25c-.25.01-2.97,2.03-2.87,4.26.06,1.37.99,2.27,2.02,2.61,1.18.39,2.42-.08,3.07-.89,2.31-2.85-2.03-5.99-2.22-5.98Z"/>
        <circle class="cls-1" cx="79.39" cy="37.35" r="6.77"/>
      </g>
    </g>
    <path class="cls-3" d="M100.53,78.52l-.08-28.44-16.19,17.29c-1.71-1.76-4.82-4.81-4.82-4.81l20.58-22.69c1.63-1.89,4.07-2.79,6.17-1.19,1.07.81,1.31,2.24,1.31,3.57l-.08,36.3c0,1.95-2.34,3.18-3.99,2.94-1.48-.21-2.89-1.27-2.9-2.96Z"/>
  </g>
  <text class="cls-2" transform="translate(37.72 124.65)"><tspan x="0" y="0">music · mind</tspan></text>
</svg>