<?xml version="1.0" encoding="UTF-8"?>
<svg id="Capa_1" data-name="Capa 1" xmlns="http://www.w3.org/2000/svg" viewBox="0 0 316.31 145.93">
  <defs>
    <style>
      .cls-1 {
        font-family: HelveticaNeue-Thin, 'Helvetica Neue';
        font-size: 14.3px;
        font-weight: 200;
        letter-spacing: .1em;
      }

      .cls-1, .cls-2 {
        fill: #fff;
      }
    </style>
  </defs>
  <g>
    <g id="Je79S9.tif">
      <g>
        <path class="cls-2" d="M93.15,93.02l-.08-27.06-15.41,16.45c2.35,2.21,3.85,4.37,3.87,7.63.02,1.9-.53,3.57-1.72,5.09-3.42,4.39-9.92,4.42-13.29.59-1.5-1.71-2.3-3.85-2.18-6.06.18-3.38,1.85-5.03,3.93-7.39-.09-.11-15.39-16.46-15.39-16.46l-.14,27.28c0,1.36-1.05,2.21-2.26,2.65-1.56.57-4.35-.56-4.36-2.6l-.08-35.61c0-.95.59-1.91,1.21-2.4,1.9-1.5,4.2-.87,5.72.81l20.08,21.88,19.59-21.59c1.55-1.8,3.87-2.66,5.87-1.14,1.02.78,1.25,2.13,1.25,3.4l-.07,34.54c0,1.85-2.23,3.02-3.8,2.8-1.41-.2-2.75-1.21-2.76-2.82ZM72.96,86.12c-.23.01-2.83,1.94-2.73,4.05.06,1.31.94,2.16,1.92,2.49,1.12.37,2.3-.08,2.92-.85,2.2-2.71-1.93-5.7-2.11-5.69Z"/>
        <circle class="cls-2" cx="73.03" cy="53.86" r="6.44"/>
      </g>
    </g>
    <path class="cls-2" d="M93.15,93.04l-.08-27.06-15.41,16.45c-1.62-1.68-4.59-4.58-4.59-4.58l19.59-21.59c1.55-1.8,3.87-2.66,5.87-1.14,1.02.78,1.25,2.13,1.25,3.4l-.07,34.54c0,1.85-2.23,3.02-3.8,2.8-1.41-.2-2.75-1.21-2.76-2.82Z"/>
  </g>
  <g>
    <g>
      <path class="cls-2" d="M132.37,62.46c-.15.85-.53,8.01.49,8.98-1.37.24-2.59.18-3.93.08-.32-.29.16-.89.19-1.26.16-2.68.21-5.28-.04-7.95-.07-.76-.49-1.41-.94-1.77-.61-.49-1.44-.61-2.23-.34-1.3.44-2.07,1.68-2.07,3.05l.04,6.64c0,.57.48,1.01.4,1.58-1.28.2-2.62.15-4.01.07-.13-.61.54-.9.54-1.43v-8.98c.02-.76-.49-1.4-.96-2.06l3.84-.88c.23.51.04.99.43,1.51,1.31-1.11,2.58-1.77,4.19-1.6,1.32.14,2.63.83,3.49,2.34,1.27-1.22,2.45-2.17,4.06-2.33,2.65-.26,4.57,1.6,4.64,4.14l.23,8c.06.4.61.62.62,1.21-1.29.22-2.65.15-4.02.06-.38-.26.16-.92.17-1.26.13-2.52.26-4.97-.03-7.49-.12-1.01-.47-2.16-1.47-2.54-1.59-.6-3.34.57-3.64,2.23Z"/>
      <path class="cls-2" d="M208.18,60.14c-4.66-.57-3.47,8.74-2.89,11.37-1.32.15-2.44.06-3.67.06.36-3.14.44-6.18.15-9.31-.08-.87-.67-1.61-1.25-1.92-.85-.46-1.78-.31-2.57.2-.95.61-1.51,1.55-1.5,2.71l.05,6.66.58,1.53c-1.31.24-2.58.13-3.89.11-.34-.53.28-.94.28-1.46l-.05-9.57c0-.38-.95-1-.5-1.37,1.01-.49,2.25-.61,3.32-.94.29.52.19.97.55,1.48,1.06-.77,1.94-1.42,3.14-1.58,1.88-.25,3.52.53,4.5,2.29,2.15-2.09,4.01-3.09,6.54-1.81.92.47,2.03,1.57,2.08,2.99l.29,8.28c.02.55.57.88.66,1.54-1.4.21-2.75.26-4.3.24.36-1.15.65-2.07.6-3.17-.13-2.86.64-8.02-2.12-8.36Z"/>
      <path class="cls-2" d="M163.9,61.61c-1.7.66-1.87-2.12-3.5-.97-1.96,1.39-1.3,5.02-1.37,7.61-.04,1.22.14,2.16.72,3.32-1.59-.02-2.92.1-4.3-.07-.09-.52.4-.87.4-1.36l.05-8.79c0-.78-.6-1.37-.73-2.19,1.15-.4,2.37-.69,3.62-.85l.46,1.44c.72-.55,1.32-1.18,2.21-1.48,1.3-.44,2.47-.07,3.38,1.01.16-.85.86-.85,1.28-1.21,1.13-.99,1.81-2.4,3.13-3.37.59,1.09.06,2.23.39,3.43,1.54.6,3.77-.43,3.51,1.16-.15.94-2.41.05-3.53.65l-.02,8.32c0,.84.56,1.5,1.24,1.67,1.75.44,2.09-2.02,3.04-1.51.23,1.7-1.23,3.01-2.92,3.39-2.01.45-4.21-.66-4.26-2.84l-.2-8.73c-.01-.47-.98-.82-1.35-.73-.59.15-.03,1.62-1.27,2.1Z"/>
      <path class="cls-2" d="M252.91,63.07c-.02-.95-.26-1.89-.92-2.45-.84-.71-1.96-.68-2.94-.25-.8.36-1.58,1.17-1.6,2.27l-.1,5.61c-.02,1.11.21,2.07.72,3.08-1.6.37-3.01.09-4.6.15.57-.8.85-1.25.85-2.05-.02-3.07.21-6.09-.12-9.13-.03-.3-.95-.82-.44-1.16.99-.66,2.32-.71,3.46-.97l.48,1.32c2.08-1.03,3.32-2.1,5.64-1.06.89.4,2.28,1.29,2.34,2.71l.38,8.98.64,1.26c-1.37.29-2.77.2-4.14.13-.21-.64.31-1.11.33-1.69.08-2.24.07-4.42,0-6.77Z"/>
      <path class="cls-2" d="M149.95,70.38c-1.76,1.65-4.36,2.07-6.45.78-1.05-.65-1.44-1.82-1.36-3,.07-1.01.77-1.97,1.82-2.58,2.45-1.43,4.8-1.09,5.61-2.51.66-1.16-.23-3.22-1.21-3.59-.79-.29-1.97-.44-2.25.32l-.99,2.67c-.28.74-1.83.63-2.24-.12-.67-1.22-.03-2.71,1.14-3.37,2.03-1.16,4.44-1.21,6.56-.23,1.25.58,2.11,1.78,2.14,3.16l.18,7.27c.05,2.03,1.4-1.25,1.94-.44s-.26,1.94-.8,2.4c-.9.76-2.01.89-3.02.38-.42-.22-.53-.59-1.07-1.15ZM149.6,65.09c-1.48.17-2.97.6-3.92,1.69-.67.77-.7,1.9-.12,2.64.52.65,1.41.91,2.33.6,2.13-.7,2.2-2.92,1.71-4.94Z"/>
      <path class="cls-2" d="M257.99,70.3c-1.35-1.63-.38-3.84,1.23-4.8,1.95-1.17,4.82-1.03,5.55-2.35.69-1.24-.06-3.41-1.45-3.75-.9-.22-2.03-.1-2.29.76l-.66,2.24c-.26.87-2.01.67-2.42-.22s0-2.05.77-2.67c2.08-1.68,4.97-1.87,7.3-.62,1.09.58,1.81,1.53,1.84,2.78l.19,7.48c0,.24.29.43.4.5.59.41.85-1.26,1.65-1.19.5,1.24-.37,2.63-1.29,3.09-1.47.73-2.65.13-3.64-1.15-2.08,1.96-5.34,2.14-7.2-.09ZM265.05,67.73c.06-1.02.03-1.71-.15-2.66-1.37.11-2.73.58-3.78,1.56-.95.89-.96,2.66.3,3.28,1.56.77,3.52-.4,3.63-2.17Z"/>
      <path class="cls-2" d="M222.72,70.56c-2.11,1.4-4.85,2.01-6.88.2-.86-.76-1.17-1.83-.93-3.03.73-3.65,6.57-2.95,7.38-4.61.29-.6.22-1.3.06-1.98-.27-1.15-1.11-1.86-2.15-1.86-2.73,0-1.26,3.32-2.95,3.59-.59.1-1.51.04-1.74-.68-.38-1.16.29-2.41,1.33-3.09,1.68-1.1,3.86-1.3,5.77-.65,1.55.53,2.76,1.81,2.8,3.43l.19,7.28c0,.26.28.45.4.53.59.34,1.06-1.7,1.46-1.02.67,1.13-.31,2.34-1.1,2.82-1.35.83-2.61.2-3.63-.92ZM222.42,64.89c-1.79.33-4.61,1.39-4.6,3.26,0,.64.28,1.34.96,1.7.79.42,1.72.31,2.52-.17,1.42-.86,1.45-3.13,1.12-4.78Z"/>
      <path class="cls-2" d="M182.04,70.37c-2.07,1.98-5.35,2.14-7.14-.07-1.31-1.61-.41-3.88,1.25-4.9,1.96-1.21,4.63-.98,5.39-2.25.43-.71.22-1.51,0-2.25-.31-1.06-1.15-1.62-2.12-1.61-2.37.02-1.18,3.15-2.78,3.53-.52.12-1.35.14-1.63-.47-.56-1.21.02-2.66,1.18-3.33,1.88-1.1,4.18-1.24,6.16-.41,1.41.59,2.27,1.73,2.31,3.25l.19,7.27c0,.35.37.64.58.68.83.16.75-1.72,1.6-1.49.76,1.17-.24,2.75-1.19,3.19-1.5.69-2.86.27-3.79-1.14ZM178.67,70.03c1.68.54,3.17-.79,3.25-2.39.05-.95,0-1.75-.2-2.75-2.04.54-4.54,1.1-4.38,3.47.04.62.47,1.39,1.34,1.67Z"/>
      <path class="cls-2" d="M231.66,63.6l-.02,5.13c0,.99.2,1.74.84,2.61-1.62.37-3.01.3-4.47.1.05-.66.58-.97.57-1.51l-.04-9.06-.75-1.66c1.15-.43,2.34-.68,3.48-.97.35.47.35.93.66,1.52.93-.74,1.76-1.59,3.02-1.63.96-.03,1.92.35,2.2,1.12.31.86.09,2.03-.84,2.44-1.2.53-2-1.8-3.2-1.04-.97.61-1.43,1.72-1.44,2.95Z"/>
      <path class="cls-2" d="M238.09,71.58c-.25-.69.52-1.01.52-1.65l-.06-9.26-.74-1.55c1.19-.54,2.48-.82,3.81-1.01l.19,11.76c.14.53.75.88.75,1.5-1.41.25-2.77.11-4.47.2Z"/>
      <ellipse class="cls-2" cx="240.16" cy="54.99" rx="1.91" ry="1.89"/>
    </g>
    <text class="cls-1" transform="translate(148.91 88.31)"><tspan x="0" y="0">music · mind</tspan></text>
  </g>
</svg>